<svg xmlns="http://www.w3.org/2000/svg" height="800" width="1200" viewBox="-150 -39.7765 1300 238.659"><path d="M988.307 5.583v29.781c-15.429-5.824-29.166-8.77-41.188-8.77-7.122 0-12.792 1.32-17.056 3.869-4.264 2.571-6.44 5.737-6.44 9.473 0 4.967 4.813 9.385 14.506 13.341l28.001 13.627c22.64 10.792 33.87 25.122 33.87 43.123 0 14.967-5.956 26.902-17.979 35.738-11.935 8.923-28.001 13.34-48.002 13.34-9.231 0-17.517-.395-24.88-1.23-7.363-.79-15.825-2.418-25.21-4.747v-31.166c17.21 5.824 32.88 8.77 46.99 8.77 16.837 0 25.21-4.88 25.21-14.727 0-4.901-3.428-8.857-10.395-11.957l-31.1-13.253c-11.473-5.187-20.001-11.473-25.584-18.924-5.495-7.516-8.286-16.132-8.286-25.979 0-13.78 5.802-24.88 17.275-33.32C909.6 4.198 924.942 0 944.02 0c6.198 0 13.342.55 21.254 1.56 7.978 1.077 15.649 2.396 23.034 4.023zm-880.83 0v29.781c-15.43-5.824-29.144-8.77-41.167-8.77-7.143 0-12.791 1.32-17.055 3.869-4.264 2.571-6.44 5.737-6.44 9.473 0 4.967 4.88 9.385 14.572 13.341l28.001 13.627c22.55 10.792 33.804 25.122 33.804 43.123 0 14.967-5.978 26.902-17.913 35.738-12.022 8.923-28.001 13.34-48.068 13.34-9.231 0-17.54-.395-24.902-1.23-7.363-.79-15.737-2.418-25.188-4.747v-31.166c17.276 5.824 32.947 8.77 46.97 8.77 16.835 0 25.21-4.88 25.21-14.727 0-4.901-3.408-8.857-10.31-11.957l-31.1-13.253c-11.56-5.187-20.088-11.473-25.583-18.924C2.725 64.355 0 55.74 0 45.892c0-13.78 5.759-24.88 17.297-33.32C28.771 4.198 44.134 0 63.212 0c6.264 0 13.319.55 21.32 1.56 7.912 1.077 15.582 2.396 22.945 4.023zm32.089 150.732V2.79h45.607v153.524zM220.45 2.791h111.653v28.375H264.34v34.045h58.772v25.584H264.34v35.738h69.146v29.782H220.45zm193.92 0l38.001 93.982 39.76-93.982h52.882v153.524h-42.576V55.057l-44.175 102.664h-26.287L389.49 55.057v101.258h-30.793V2.79zm165.856 0h111.652v28.375h-67.391v34.045h58.772v25.584h-58.772v35.738h68.776v29.782H580.226zm169.019 55.058v98.466h-30.773V2.79h49.784l52.881 96.774V2.791h30.768v153.524h-48.374z" class="fil0" clip-rule="evenodd" fill="#099" fill-rule="evenodd" image-rendering="optimizeQuality" shape-rendering="geometricPrecision" text-rendering="geometricPrecision"/></svg>