<svg xmlns="http://www.w3.org/2000/svg" height="800" width="1200" viewBox="-7.0499955 -1.7319625 61.099961 10.391775"><path d="M43.59143 6.92785c.7814-1.52506 1.9177-2.69416 3.40854-3.5193 0 .004-3.40572-3.40467-3.40572-3.40855-1.70462 1.70921-2.71145 2.70475-3.40783 3.40854-.00071 0 .0067.004 0 0 1.44145.78564 2.56152 1.92581 3.405 3.51931" fill="#ffee01"/><path d="M2.87867 5.96148h-.77188V3.88186L0 .89524h.97684l1.5106 2.24014L4.0086.89771h.96662L2.87867 3.86457z" fill="#231f20"/><path d="M6.76955.74355c-.38241 0-2.48109.16933-2.48109 2.72344 0 2.40665 2.1015 2.62573 2.50437 2.6289.42334.003 2.49979-.24377 2.49979-2.6931 0-2.32234-1.86867-2.65924-2.52307-2.65924m.05151 4.68383c-.74965 0-1.74978-.43674-1.74978-2.01436 0-1.44075.95215-2.0133 1.7018-2.0133.68545 0 1.73285.44767 1.73285 2.07927 0 1.60267-1.1557 1.9484-1.68487 1.9484m3.623.53187H9.6757V.89231l.81597.002V3.2918L12.87964.89502h1.0488L11.8213 3.00886l2.2733 2.94817-.98813.004-1.87678-2.48215-.78563.74331z" fill="#231f20"/><path d="M15.9245.73063c-.73166.0251-2.55128.39864-2.55128 2.64195 0 2.46874 1.9692 2.71816 2.57457 2.71498.67733-.004 2.44898-.4766 2.4578-2.69628C18.41582.7317 15.89487.73098 15.9245.73063m-.0042 4.6909c-.73307 0-1.74095-.3923-1.74095-2.01085 0-1.54552 1.01212-2.01295 1.72367-2.01295.89323 0 1.69086.66111 1.69086 1.9798 0 1.70356-1.08161 2.044-1.67358 2.044M21.261 3.2936l2.19603.002-.0071 2.63878h-.60854l-.08819-.4886c-.4752.4639-.95003.62512-1.71697.62301-1.10701-.002-2.31704-.88089-2.31704-2.68394 0-1.22555.77787-2.62643 2.40383-2.61937.86148 0 2.06092.28716 2.26412 1.61995l-.79586.003c-.10055-.3355-.3863-.99166-1.40194-.99166-.83115 0-1.65312.50623-1.65312 2.04787 0 1.45874.9137 1.99884 1.61325 1.99884.68404 0 1.33033-.23283 1.59138-1.45133h-1.47637l-.0035-.69885M26.2102.90254l-1.03963.002-1.62066 5.05248h.83044l.43039-1.40229 1.98014-.002.55774 1.39241.8502-.008zm-1.20438 2.99861l.68968-2.27118.14817.4071.69039 1.86408zM27.26513.89531h.86536c.68016 2.7499.81457 3.23286.9645 3.77014.11923-.50624.36618-1.16946 1.03222-3.77014h.78352c.79023 2.80352.90805 3.23603 1.0802 3.80047.11995-.46954.2847-1.0287.95992-3.80047H33.77L32.41427 5.9471l-.81103.01c-.65723-2.2426-.73802-2.5139-1.07068-3.695-.27376.94121-.32738 1.18498-1.03082 3.69041h-.83362l-1.403-5.05707m8.48181-.00789h-.99766l-1.79 5.06166h.79976l.46037-1.3536 2.014.002.49072 1.34901.83644-.002zm-1.28764 3.03777l.77929-2.2426-.00071-.0102.78528 2.2546z" fill="#231f20"/></svg>