<svg xmlns="http://www.w3.org/2000/svg" viewBox="0 0 1714.873 396.001">
  <g fill="#F00">
    <path d="M918.49 249.573c-38.506 0-61.496 20.212-61.496 54.071 0 33.743 22.99 53.89 61.497 53.89 38.628 0 61.69-20.147 61.69-53.89 0-33.859-23.062-54.071-61.69-54.071zm0 78.04c-11.329 0-18.945-9.706-18.945-24.155 0-14.558 7.616-24.342 18.946-24.342 11.507 0 18.945 9.556 18.945 24.342 0 14.9-7.26 24.156-18.945 24.156zM1404.355 340.067c0 8.3 6.634 15.028 14.816 15.028h28.824V252.197h-43.64v87.87zM1404.355 218.43h43.639v21.291h-43.639zM1526.91 249.573c-38.506 0-61.497 20.212-61.497 54.071 0 33.743 22.99 53.89 61.497 53.89 38.628 0 61.693-20.147 61.693-53.89 0-33.859-23.065-54.071-61.693-54.071zm0 78.04c-11.334 0-18.948-9.706-18.948-24.155 0-14.558 7.614-24.342 18.948-24.342 11.508 0 18.946 9.556 18.946 24.342 0 14.9-7.26 24.156-18.946 24.156zM711.336 86.32c-38.506 0-61.497 20.212-61.497 54.071 0 33.742 22.99 53.889 61.497 53.889 38.628 0 61.692-20.147 61.692-53.889 0-33.859-23.064-54.072-61.692-54.072zm0 78.04c-11.332 0-18.948-9.707-18.948-24.155 0-14.559 7.616-24.342 18.948-24.342 11.507 0 18.946 9.556 18.946 24.342 0 14.9-7.26 24.155-18.946 24.155zM1320.749 165.479c-4.682.131-24.198 1.134-41.437 1.134-17.67 0-23.898-1.817-27.43-13.23h69.83a3.281 3.281 0 0 0 3.281-3.28v-8.022c0-35.438-18.796-55.31-54.773-55.762-40.194-.505-59.036 20.564-59.036 52.386 0 34.916 18.43 55.761 62.288 55.761 31.391 0 45.593-12.755 48.359-27.5.1-.531-.542-1.502-1.082-1.487zm-50.332-55.304c11.586 0 16.8 9.535 16.8 21.3h-35.84c0-11.91 4.037-21.3 19.04-21.3zM1383.585 55.179h-28.387c-8.182 0-14.816 6.728-14.816 15.027V191.84h43.203V55.18zM834.93 193.535c17.036 1.583 36.12-1.917 43.354-3.449 1.75-.37 2.993-1.94 2.993-3.755V161.19s-7.955.894-26.95.894c-16.44 0-26.652-8.49-26.652-22.16 0-13.774 9.607-22.333 25.074-22.333 17.94 0 28.528 2.216 28.528 2.216V94.386c0-1.812-1.236-3.375-2.983-3.752-7.21-1.556-26.09-5.205-41.027-4.317-31.983 1.9-51.943 20.612-51.943 53.795 0 31.455 18.77 50.558 49.606 53.423zM1264.78 251.84v13.327c-6.219-9.477-15.66-15.785-29.914-15.785-32.562 0-50.959 20.152-50.959 53.889v.388c0 33.736 18.397 53.888 50.959 53.888 14.254 0 23.695-6.308 29.914-15.785v2.264c0 6.114 4.879 11.063 10.94 11.063h30.232V251.84h-41.173zm-18.944 75.787c-11.322 0-18.943-9.736-18.943-24.162 0-14.427 7.621-24.163 18.943-24.163 11.671 0 18.944 9.283 18.944 24.163 0 14.879-7.273 24.162-18.944 24.162zM1164.55 88.944l-12.191 67.346-13.605-67.346h-49.144l-13.605 67.346-12.19-67.346h-40.928l.003.011-42.593-.342c-6.38 0-12.59 3.916-15.999 10.074l-24.218 35.217V54.848h-26.355c-8.182 0-14.818 6.728-14.818 15.027V191.51h41.173v-51.205l28.25 41.132c3.408 6.158 9.619 10.074 15.999 10.074l42.668.343-41.726-54.997 37.637-47.829 24.568 102.814h45.957c5.07 0 9.398-3.744 10.266-8.872l8.79-60.998h3.386l8.79 60.998c.868 5.128 5.196 8.872 10.265 8.872h45.957l24.587-102.898h-40.924zM721.61 296.714c0 17.63-5.646 26.59-16.775 26.59-6.922 0-14.004-2.298-14.004-19.28v-51.818h-41.17v58.74c0 29.564 14.764 45.835 41.553 45.835 13.491 0 25.101-4.755 33.552-13.585v.808c0 6.113 4.91 11.095 10.94 11.095h27.076V252.206h-41.173v44.508zM1132.118 249.753c-14.323 0-26.663 6.118-35.258 17.358-7.054-11.243-18.84-17.358-33.724-17.358-12.496 0-23.742 4.833-31.99 13.52v-11.081h-37.609v102.897h40.768v-49.574c0-13.305 6.043-21.903 15.394-21.903 6.658 0 12.817 2.268 12.817 18.716v52.76h40.968v-49.573c0-13.51 5.82-21.903 15.191-21.903 6.66 0 12.823 2.268 12.823 18.716v52.76h40.768v-59.703c0-29.427-14.257-45.632-40.148-45.632zM1673.534 249.566c-13.455 0-25.076 4.818-33.571 13.741v-11.115h-38.004v102.897h41.166v-49.574c0-13.646 6.584-22.465 16.772-22.465 6.926 0 14.005 2.29 14.005 19.278v52.76h40.97v-59.703c0-29.548-14.68-45.819-41.338-45.819zM1364.541 218.428h-41.172v121.634c0 8.3 6.633 15.028 14.818 15.028h26.354v-72.584h24.877v-30.309h-24.877v-33.769zM1447.456 55.179h-28.385c-8.185 0-14.818 6.728-14.818 15.027V191.84h43.203V55.18zM550.772 218.428c-4.427 0-8.409 2.696-10.048 6.807L488.873 355.09h43.12l9.621-25.811h49.577l5.255 14.942v.033c2.9 6.501 9.312 10.836 16.168 10.836h33.773l-54.566-136.661h-41.049zm1.954 80.39l14.155-38.6 13.6 38.6h-27.755zM825.008 218.498h-43.653v121.634c0 8.299 6.635 15.027 14.818 15.027h28.835v-72.584h24.877v-30.308h-24.877v-33.77zM629.913 139.226c-4.372-5.551-10.295-9.675-19.185-11.318v-.358c19.143-2.269 30.475-15.335 30.475-36.323 0-26.284-18.775-36.478-49.257-36.478h-73.779v136.85h43.594v-49.827h11.995c5.984 0 12.08.973 13.79 7.1l12.32 35.815c.684 3.997 4.063 6.912 8.017 6.912h40.305l-15.094-45.743c-.596-2.411-1.65-4.693-3.181-6.63zm-50.338-25.993h-17.212V84.15h17.87c8.932 0 17.353 1.784 17.353 14.12 0 13.773-8.897 14.962-18.011 14.962z"/>
  </g>
  <g fill="#F00">
    <path d="M112.718 122.651L271.158 5.286c2.27-1.682 1.08-5.286-1.745-5.286H139.531a56.804 56.804 0 0 0-40.163 16.634L16.638 99.35A56.792 56.792 0 0 0 0 139.512V256.49a56.79 56.79 0 0 0 16.637 40.16l82.727 82.715a56.809 56.809 0 0 0 40.167 16.636h112.518c3.13 0 4.081-4.247 1.25-5.582L29.697 285.01a26.658 26.658 0 0 1-15.291-24.112V204.79a18.49 18.49 0 0 1 7.485-14.859l32.217-23.864v-43.416h58.61z"/>
    <path d="M266.823 167.929l-15.266 41.633h29.935zM138.216 169.592c0-13.303-9.084-15.228-18.716-15.228h-19.274v31.365h18.563c9.83 0 19.427-1.28 19.427-16.137z"/>
    <path d="M381.634 101.56L304.61 24.53a12.65 12.65 0 0 0-16.175-1.437l-148.24 99.83c28.072 1.753 45.064 13.131 45.064 39.074 0 22.635-12.222 36.728-32.87 39.175v.386c9.589 1.772 15.977 6.219 20.692 12.208 1.653 2.087 2.79 4.55 3.431 7.15l11.707 35.48 50.391-126.197a11.671 11.671 0 0 1 10.84-7.343h44.272l58.853 147.398h-36.428c-7.393 0-14.308-4.676-17.436-11.688v-.034l-5.668-16.116h-53.472l-10.378 27.838h-79.872c-4.265 0-7.909-3.145-8.646-7.456l-13.288-38.629c-1.844-6.609-8.42-7.658-14.874-7.658H99.576v53.743H54.108V180.9L26.91 199.215a9.176 9.176 0 0 0-3.93 7.528v56.89a9.174 9.174 0 0 0 5.519 8.413l256.46 107.334a12.65 12.65 0 0 0 13.966-2.638l82.634-82.286a49.253 49.253 0 0 0 14.5-34.9v-123.17a49.252 49.252 0 0 0-14.424-34.825z"/>
  </g>
</svg>
