<?xml version="1.0" encoding="utf-8"?>
<!-- Generator: Adobe Illustrator 19.2.1, SVG Export Plug-In . SVG Version: 6.00 Build 0)  -->
<svg version="1.1" id="layer" xmlns="http://www.w3.org/2000/svg" xmlns:xlink="http://www.w3.org/1999/xlink" x="0px" y="0px"
	 viewBox="0 0 652 652" style="enable-background:new 0 0 652 652;" xml:space="preserve">
<style type="text/css">
	.st0{fill:#1B3573;}
	.st1{fill:#FFFFFF;}
</style>
<path class="st0" d="M20.3,336.1V307c0-4,2.1-7.3,4.2-10l17.7-18.1c3.1-2.9,6.7-4.8,11-5h26.9c3.7,0,7.3,1.5,10.4,4l20.8,20.6
	c2.3,2.7,3.5,6.3,3.5,9v28.3c-0.4,3.7-3.5,5.8-5.8,5.8H25.8C22.6,341.1,20.8,338.8,20.3,336.1"/>
<path class="st0" d="M29.1,344.9h76.8c2.1,0,2.3,2.3,1.2,3.7l-15.6,15.6c-2.3,2.3-7.9,4.2-10.6,4.2H53.9c-2.9,0-7.5-1.9-9.8-4.4
	l-16.3-15.2C26,347.6,26.4,344.7,29.1,344.9"/>
<path class="st1" d="M34.8,333.5h-6c1.7-1,1.7-2.5,2-3.2l12.4-35.1h7.9l14.2,36.5c0.5,0.9,0.8,1.6,1.4,1.8H56.4c0.3-1-0.1-2-0.3-2.6
	l-3.1-8.1h-9.8v-3.8h8.4l-6.5-16.7l-10.2,28.3C34.6,332.1,34.8,333.5,34.8,333.5"/>
<rect x="62.5" y="312.3" class="st1" width="5.6" height="3.8"/>
<path class="st1" d="M70.2,295.4c1.1,1.4,1.3,3.9,1.3,3.9v31.4c0,1.1-0.9,2.7-0.9,2.7h23.5c4.4,0,7.7-3.4,7.8-5.8v-9.2
	c-0.3-2.4-4-4.9-6.3-4.9c2.6-0.4,4.3-2.7,4.3-4.4v-8c-0.1-2.5-2.7-5.5-5.1-5.8H70.2z"/>
<path class="st0" d="M90.9,329.7H79.4v-30.2h9.1c1.8,0.1,2.8,1.2,2.9,2.5v7.9c-0.1,1.3-1.4,2.2-2.4,2.3H83v3.9h7.8
	c1.6,0.2,3,1.8,3,3v7.6C93.7,328.4,91.9,329.6,90.9,329.7"/>
<path class="st1" d="M54.9,350.3v7.5h2v-7.5h1.6v7.7c0,0.7-0.5,1.2-1,1.2h-3.2c-0.6,0-0.8-0.6-0.9-0.9v-8L54.9,350.3z"/>
<rect x="74.1" y="350.3" class="st1" width="1.6" height="8.9"/>
<polygon class="st1" points="77.4,350.3 81.9,350.3 81.9,351.6 80.4,351.6 80.4,359.2 78.9,359.2 78.9,351.6 77.4,351.6 "/>
<polygon class="st1" points="85.9,359.3 85.9,355 83.5,350.3 85.2,350.3 86.7,353.5 88,350.3 89.7,350.3 87.4,355 87.4,359.3 "/>
<path class="st1" d="M47.1,350.3h3.1c0.6,0,1.2,0.9,1.1,1.4v6.2c0,0.7-0.5,1.4-0.9,1.4c0.2,0.5,0.5,0.7,0.9,0.9v0.4h-1
	c-0.6-0.3-1-0.7-1.3-1.3h-2.1c-0.7,0-1.1-0.7-1.2-1.5v-6.1C45.7,351.1,46.3,350.3,47.1,350.3"/>
<rect x="47.7" y="351.9" class="st0" width="1.5" height="5.8"/>
<polygon class="st1" points="68.3,359.2 68.3,350.3 69.9,350.3 69.9,357.8 72.2,357.8 72.2,359.2 "/>
<polygon class="st1" points="62.2,350.3 64.3,350.3 66.4,359.3 64.7,359.3 64.2,357.5 62.2,357.5 61.7,359.2 60.2,359.2 "/>
<polygon class="st0" points="63.8,356.3 62.8,356.3 63.2,352.6 "/>
<path class="st0" d="M190.3,295.1h14.9l3.1,59.6h-12.5l-0.1-12.6h-15.9l-5.4,12.6h-12.5L190.3,295.1z M184,332.2h11.7l-0.1-26.8
	h-0.2L184,332.2z"/>
<polygon class="st0" points="225.2,295.1 236.7,295.1 224.1,354.7 212.6,354.7 "/>
<polygon class="st0" points="245.2,295.1 256.8,295.1 244.1,354.7 232.6,354.7 "/>
<path class="st0" d="M266.4,334l-0.8,3.6c-1.1,5.2-0.8,10.4,3.4,10.4c3.8,0,6-2.9,7.9-8.4h10.3c-2.6,10.4-8.9,16.3-19.7,16.3
	c-16.7,0-14.6-12.9-12.2-24c2.5-12,7.3-23.2,22.8-23.2c13.4,0,14.5,9,11.6,22.8l-0.5,2.6H266.4z M279.6,327.2
	c1.2-6.8,1.2-10.7-3.6-10.7c-4.6,0-6.9,4.8-7.8,8.9l-0.4,1.7H279.6z"/>
<path class="st0" d="M300.3,309.8h11l-1.1,5.3h0.2c3.4-4.4,8-6.4,12.8-6.4c7.2,0,10.6,3.9,8.7,12.8l-7.1,33.3h-11.5l6.6-30.9
	c1-4.5-0.2-6.3-3.6-6.3c-3.9,0-6.6,2.4-7.7,7.4l-6.3,29.8h-11.5L300.3,309.8z"/>
<polygon class="st0" points="362.1,325.6 360,335.5 336.4,335.5 338.5,325.6 "/>
<path class="st0" d="M376.4,295.1h20.1c9.8,0,16.2,3.7,13.7,15.1c-1.4,6.4-5.5,11.3-11.8,13l0,0.2c6.4,0.9,9.6,5.9,7.9,13.9
	c-2,9.4-8.3,17.4-22.3,17.4h-20.3L376.4,295.1z M383.2,319.6h3.4c6.6,0,10.1-2.3,11.3-7.9c1.2-5.7-1.1-7.8-7-7.8h-4.3L383.2,319.6z
	 M377.6,345.8h4.7c5.8,0,10.1-2.1,11.6-9c1.5-6.9-2-8.9-7.3-8.9h-5.2L377.6,345.8z"/>
<path class="st0" d="M419.3,309.8h11l-1.3,6h0.2c3.3-4.3,7.1-7.2,11.9-7.2c0.7,0,1.4,0.1,2.1,0.2l-2.3,11c-1.1-0.1-2.4-0.2-3.6-0.2
	c-4,0-9,2.1-10.2,8.1l-5.7,26.9h-11.5L419.3,309.8z"/>
<path class="st0" d="M444.1,323.6l0.2-1.1c2.2-10.3,10-13.8,18.7-13.8c13.7,0,15.1,5.7,13.3,13.8l-5,23.6c-0.9,4.2-1,6.1-0.4,8.7
	h-11c-0.4-1.4-0.4-3.2-0.4-4.7h-0.2c-3.7,4.7-7.2,5.8-12.7,5.8c-8,0-9.4-6.8-8.1-12.9c1.8-8.4,5.9-11.8,14.3-14l6.9-1.8
	c3.6-0.9,5.1-2.3,5.7-5.3c0.7-3.4-0.3-5.5-4.2-5.5c-3.5,0-5.8,2.3-6.6,5.8l-0.3,1.2H444.1z M463.2,332.2c-1.8,1.2-3.9,1.9-5.4,2.3
	c-4.9,1-7.2,3.3-8.1,7.3c-0.7,3.4-0.1,6.3,3,6.3c3.1,0,7.5-2,8.6-6.9L463.2,332.2z"/>
<path class="st0" d="M501.7,349.9h-0.2c-3.4,4.2-6.9,5.9-11.4,5.9c-9.4,0-12.3-6.9-8.8-23.6c3.5-16.7,9.4-23.6,18.8-23.6
	c4.3,0,6.9,1.7,8.6,5.3h0.2l4-18.9h11.5l-12.7,59.6h-11L501.7,349.9z M495.7,347c5.1,0,7.1-5,9.2-14.8c2.1-9.8,2.1-14.8-2.9-14.8
	c-5,0-7.1,5-9.2,14.8C490.8,342,490.7,347,495.7,347"/>
<polygon class="st0" points="532.4,295.1 544,295.1 531.3,354.7 519.8,354.7 "/>
<path class="st0" d="M553.6,334l-0.8,3.6c-1.1,5.2-0.8,10.4,3.5,10.4c3.8,0,6-2.9,7.9-8.4h10.3c-2.6,10.4-8.9,16.3-19.7,16.3
	c-16.7,0-14.6-12.9-12.2-24c2.5-12,7.3-23.2,22.8-23.2c13.4,0,14.5,9,11.6,22.8l-0.6,2.6H553.6z M566.9,327.2
	c1.2-6.8,1.2-10.7-3.6-10.7c-4.6,0-6.9,4.8-7.8,8.9l-0.4,1.7H566.9z"/>
<path class="st0" d="M576.7,360.8c1,0.2,1.9,0.2,2.9,0.2c4.2,0,6.3-2.3,7.5-6.3l-3.1-44.9h12l0.1,31h0.2l12.4-31h11.5l-19.7,41.9
	c-7.3,15.5-10.4,17.7-21,17.7h-4.7L576.7,360.8z"/>
</svg>
