<svg xmlns="http://www.w3.org/2000/svg" height="800" width="1200" version="1.0" viewBox="-27.71175 -13.63425 240.1685 81.8055"><defs><clipPath id="a"><path d="M409.441 126.252v-43.63h147.796v43.63"/></clipPath><clipPath id="b"><path d="M409.441 126.252v-43.63h147.796v43.63"/></clipPath></defs><path d="M21.0137 7.9425C16.79 6.0675 14.2712 5.34 11.77 5.34c-2.625 0-4.3063.94-4.3063 2.3925 0 4.3837 14.8713 3.15 14.8713 13.29 0 5.5912-4.6913 8.84-11.2088 8.84-5.1125 0-7.63-1.3225-10.53-2.82V20.77c4.1825 2.7712 6.7425 3.75 9.9688 3.75 2.7975 0 4.3062-.9788 4.3062-2.685C14.8712 17.0612 0 18.81 0 8.3687 0 3.3337 4.3512 0 11.1262 0c3.27 0 6.22.6862 9.8875 2.2637v5.6788M41.835 28.53c-2.4788.8987-4.575 1.3275-6.6663 1.3275-6.9262 0-11.4037-4.0338-11.4037-10.1713 0-6.025 4.6512-10.2812 11.1462-10.2812 2.0063 0 4.5713.5137 6.6225 1.2775v4.6125c-1.6237-.8625-3.5037-1.335-5.0425-1.335-3.7175 0-6.1087 2.2337-6.1087 5.6812 0 3.4963 2.3512 5.7975 5.8937 5.7975 1.495 0 2.8238-.3425 5.5588-1.3662V28.53m54-11.1038c.2537-2.7375 1.8437-4.32 4.2787-4.32 2.3938 0 4.0163 1.6275 4.2725 4.32zm3.8512-8.015c-6.0775 0-10.4037 4.2925-10.4037 10.3325 0 6.085 4.4987 10.1138 11.4325 10.1138 1.5362 0 5.2512 0 8.79-2.6188v-3.8512c-2.8988 2.065-4.8163 2.7762-7.2913 2.7762-3.9062 0-6.295-2.0212-6.5112-5.4712h14.1512c.2938-7.2013-4.4337-11.2813-10.1675-11.2813m12.5613 20.0875h6.1877V9.775h-6.1877zm23.4062-5.3912c-1.2887 1.16-2.36 1.625-3.6812 1.625-2.9138 0-4.7575-2.3975-4.7575-5.9913 0-3.9375 1.8437-6.2075 4.9625-6.2075 1.1162 0 2.5737.5138 3.4762 1.1575zm0-23.7438V10.64c-1.6712-.8088-3.3375-1.235-5.1387-1.235-5.6438 0-9.5488 4.1712-9.5488 10.2075 0 5.9062 3.905 10.25 9.2 10.25 2.1 0 3.7225-.55 5.4875-1.9575v1.5875h6.1863V.3637h-6.1863m15.345 17.0625c.2575-2.7375 1.8388-4.32 4.27-4.32 2.3975 0 4.0363 1.6275 4.2925 4.32zm3.8475-8.015c-6.0762 0-10.395 4.2925-10.395 10.3325 0 6.085 4.4988 10.1138 11.425 10.1138 1.5338 0 5.2563 0 8.8038-2.6188v-3.8512c-2.9025 2.065-4.8238 2.7762-7.31 2.7762-3.885 0-6.2838-2.0212-6.5-5.4712h14.145c.2937-7.2013-4.4375-11.2813-10.1688-11.2813" fill="#009e4d"/><g clip-path="url(#a)" fill="#009e4d" transform="matrix(1.25 0 0 -1.25 -511.8013 157.815)"><path d="M548.863 113.914h.073c1.469 3.284 3.114 4.824 5.023 4.824.989 0 1.842-.377 3.278-1.439l-1.362-4.375c-1.3.82-2.154 1.163-2.939 1.163-1.816 0-2.978-1.712-4.073-4.606v-6.807h-4.956v15.775h4.956v-4.535m-44.442 11.156c.465-1.226-.372-2.936-1.863-3.816-1.497-.879-3.079-.6-3.54.626-.47 1.228.363 2.94 1.858 3.815 1.493.884 3.076.604 3.545-.625"/></g><path d="M64.1212 16.945c0-5.345-3.6325-7.5338-7.2175-7.5338-2.4375 0-4.4412 1.0288-6.2337 3.2975h-.085V.3637h-6.1938v29.0775h6.1938V16.945c1.4487-2.0963 2.6862-2.9925 4.1375-2.9925 1.9262 0 3.2062 1.37 3.2062 4.3162v6.9288c2.0775-1.0675 4.1888-1.7225 6.1925-1.9663V16.945m15.535-7.54c-2.5225 0-4.4487.9375-6.42 3.1925V9.775H67.045v13.4037c2.145.2138 4.8812 1.1975 6.1912 2.8225V16.79c1.6275-2.4425 2.7825-3.2563 4.3225-3.2563 1.7538 0 3.0863 1.1575 3.0863 3.9388v11.975h6.1925V16.96c0-5.8088-4.1025-7.555-7.1813-7.555m10.6013 25.7062h-7.195v5.1125h6.9412v2.1938h-6.9412v5.2737h7.41v2.1913H80.65v-16.96h9.6075v2.1887m5.8762 14.7813h2.204v-16.975h-2.204zm13.115-9.5075c1.5625 0 2.5313 1.0762 2.6038 2.7675H106.24c.3037-1.7663 1.32-2.7675 3.0087-2.7675zM106.2 44.6237h7.8512c0-4.1387-1.8912-6.1362-4.8525-6.1362-3.0725 0-5.2062 2.2712-5.2062 5.6587 0 3.0963 1.9275 5.955 5.3975 5.955 1.8912 0 3.1137-.42 4.4675-1.3187v-2.145c-1.3075.8562-2.5763 1.35-3.9113 1.35-2.135 0-3.4025-1.145-3.7462-3.3638m22.2425-2.9862c-1.2675-.8675-2.1138-1.1225-3.0788-1.1225-2.0175 0-3.415 1.5475-3.415 3.8137 0 2.3088 1.4875 3.7 3.7838 3.7.945 0 1.845-.245 2.9562-.7425V49.46c-.7425.35-2.1575.6412-3.325.6412-3.3375 0-5.6537-2.295-5.6537-5.575 0-3.7012 2.1162-6.0387 5.5025-6.0387 1.2937 0 2.1637.3012 3.23.77v2.38m10.0412-2.9363h3.5375v1.9863h-3.5375v5.74c0 1.3137.9513 1.6937 1.5938 1.6937.7975 0 1.62-.2787 2.5125-.83v2.0675c-.7738.4263-1.9613.7425-2.6888.7425-2.4 0-3.6137-1.49-3.6137-3.5075v-5.9062h-1.9438v-.2463l4.14-4.0512v2.3112m11.965 0V41.29h.045c1.1238-1.9813 2.1925-2.8025 3.2325-2.8025.8975 0 1.7375.4212 2.6613 1.295L155.22 41.725c-.6713-.6638-1.5388-1.1213-2.0625-1.1213-1.5175 0-2.7088 1.5425-2.7088 3.4538v5.835h-2.2012V38.7012h2.2012m28.5225 2.9363c-1.2737-.8675-2.1187-1.1225-3.09-1.1225-2.0125 0-3.3987 1.5475-3.3987 3.8137 0 2.3088 1.4887 3.7 3.7712 3.7.9463 0 1.8413-.245 2.9675-.7425V49.46c-.7587.35-2.175.6412-3.34.6412-3.3325 0-5.6587-2.295-5.6587-5.575 0-3.7012 2.1262-6.0387 5.5125-6.0387 1.2962 0 2.1575.3012 3.2362.77v2.38m-16.7412 8.255h2.2035V38.7016H162.23z" fill="#009e4d"/><g clip-path="url(#b)" fill="#009e4d" transform="matrix(1.25 0 0 -1.25 -511.8013 157.815)"><path d="M541.047 98.507c.172-.432-.129-1.043-.659-1.354-.534-.312-1.099-.212-1.26.221-.161.437.131 1.043.667 1.355.529.316 1.091.215 1.252-.222m-78.917-.724c-.311 0-.442-.051-.569-.193-.05-.055-.07-.111-.088-.223l-1.581-5.996c-.371-2.103-2.954-4.203-6.321-4.203h-4.681l.812 3.081h3.007c.307 0 .547.114.748.338.074.087.17.223.183.363l1.248 5.239c.368 2.104 2.591 4.428 5.957 4.428h4.794l-.613-2.834zm1.08-3.654l.535 1.94h4.87c.601 2.813.128 5.419-1.579 7.126-3.455 3.455-10.683 2.281-16.068-2.871-.841-.8-1.551-1.665-2.198-2.549h2.932l-.682-1.944h-3.503c-.335-.613-.649-1.221-.889-1.838h4.154l-.665-1.944h-4.082c-.698-2.97-.253-5.74 1.503-7.499 3.412-3.411 10.618-2.212 16 2.939.942.896 1.72 1.863 2.423 2.856h-3.767l.574 1.94h4.404c.323.617.62 1.227.852 1.844h-4.814"/></g></svg>